<?xml version="1.0" encoding="UTF-8" standalone="no"?>
<svg width="93px" height="14px" viewBox="0 0 93 14" version="1.1" xmlns="http://www.w3.org/2000/svg" xmlns:xlink="http://www.w3.org/1999/xlink">
    <!-- Generator: Sketch 45.2 (43514) - http://www.bohemiancoding.com/sketch -->
    <title>VELOTTON</title>
    <desc>Created with Sketch.</desc>
    <defs></defs>
    <g id="Page-1" stroke="none" stroke-width="1" fill="none" fill-rule="evenodd">
        <path d="M0.036,0.994 L5.148,13.27 L6.408,13.27 L11.556,0.994 L9,0.994 L5.796,9.058 L2.592,0.994 L0.036,0.994 Z M20.52,0.994 L13.86,0.994 L13.86,13 L20.52,13 L20.52,10.984 L16.2,10.984 L16.2,7.708 L20.34,7.708 L20.34,5.692 L16.2,5.692 L16.2,3.01 L20.52,3.01 L20.52,0.994 Z M25.688,0.994 L25.688,13 L31.736,13 L31.736,10.984 L28.028,10.984 L28.028,0.994 L25.688,0.994 Z M39.0519999,0.724 C42.8319999,0.724 45.4599999,3.352 45.4599999,7.006 C45.4599999,10.66 42.8319999,13.27 39.0519999,13.27 C35.2719999,13.27 32.6439999,10.66 32.6439999,7.006 C32.6439999,3.352 35.2719999,0.724 39.0519999,0.724 Z M39.0519999,11.146 C41.3919999,11.146 43.0479999,9.436 43.0479999,7.006 C43.0479999,4.576 41.3919999,2.848 39.0519999,2.848 C36.7119999,2.848 35.0559999,4.576 35.0559999,7.006 C35.0559999,9.436 36.7119999,11.146 39.0519999,11.146 Z M54.9999999,3.01 L54.9999999,0.994 L47.2599999,0.994 L47.2599999,3.01 L49.9599999,3.01 L49.9599999,13 L52.2999999,13 L52.2999999,3.01 L54.9999999,3.01 Z M64.8559999,3.01 L64.8559999,0.994 L57.1159999,0.994 L57.1159999,3.01 L59.8159999,3.01 L59.8159999,13 L62.1559999,13 L62.1559999,3.01 L64.8559999,3.01 Z M72.5599999,0.724 C76.3399999,0.724 78.9679999,3.352 78.9679999,7.006 C78.9679999,10.66 76.3399999,13.27 72.5599999,13.27 C68.7799999,13.27 66.1519999,10.66 66.1519999,7.006 C66.1519999,3.352 68.7799999,0.724 72.5599999,0.724 Z M72.5599999,11.146 C74.8999999,11.146 76.5559999,9.436 76.5559999,7.006 C76.5559999,4.576 74.8999999,2.848 72.5599999,2.848 C70.2199999,2.848 68.5639999,4.576 68.5639999,7.006 C68.5639999,9.436 70.2199999,11.146 72.5599999,11.146 Z M83.3679998,13 L83.3679998,4.882 L90.6759998,13.234 L92.2959998,13.234 L92.2959998,0.994 L89.9559998,0.994 L89.9559998,9.076 L82.6479998,0.724 L81.0279998,0.724 L81.0279998,13 L83.3679998,13 Z" id="VELOTTON" fill="#FFFFFF"></path>
    </g>
</svg>